Simulation
nRows=49
nColumns=15
endheader
time  TH_x TH_y TH_z SC_y  SC_z  SC_x  AC_y  AC_z  AC_x  GH_y  GH_z  GH_yy  EL_x  PS_y
0.0  0.000000  0.000000  0.000000  -36.906818402476475  3.7352311040328847  -0.3311911159412846  69.07458467961078  22.93819529464448  43.78663883744974  9.268176503307615  32.97639591534025  -4.929929027537455  23.036473767974883  0.000000
0.04  0.000000  0.000000  0.000000  -36.503652480837275  3.4175899104425094  0.11307088827776321  69.09784779183182  23.957739867628057  45.06955651707044  11.482398871623225  33.105006403249114  -5.852877868662583  24.26602520633678  0.000000
0.08  0.000000  0.000000  0.000000  -36.715335884368265  3.9679786327975015  -0.6002825678973136  68.37271105079111  24.005590737156165  45.03762805358936  13.338053519323559  33.157910093226235  -6.282324139378729  25.385410532712505  0.000000
0.12  0.000000  0.000000  0.000000  -36.458154414159125  3.8037175804173082  -0.5860458101676889  67.51180999977362  24.154939669012172  45.28016199233282  12.915261288230594  32.51287521715333  -6.132866043489811  24.899978359788985  0.000000
0.16  0.000000  0.000000  0.000000  -36.63331961502408  4.353334196325304  -0.8063653061383768  67.56718739824343  23.970685274034143  45.51967832752588  12.296630737867273  32.93469163876814  -5.259514451629572  24.580746008224047  0.000000
0.2  0.000000  0.000000  0.000000  -36.29977454863524  4.408101815515037  -0.8349565865836454  66.94004917306044  23.96970349317796  45.64279145723302  12.075033263940385  33.55427522813793  -4.060045929064687  24.456661190809697  0.000000
0.24  0.000000  0.000000  0.000000  -35.82960715845253  4.73643345161187  -1.2079259068193218  66.9750621032168  23.998269833738714  46.19347764212007  11.429616681606609  35.77639158175734  -2.9242057944353554  24.276777779626332  0.000000
0.28  0.000000  0.000000  0.000000  -36.209144979036985  4.31392325996987  -2.586245401861164  67.73991338870091  25.58854895636992  46.05506015543481  11.3540876050464  38.83875614629951  -2.486097205851604  24.257656758520408  0.000000
0.32  0.000000  0.000000  0.000000  -38.26339952046401  5.886628961378957  -4.427900165216314  66.07792822765879  27.352106390983327  47.69994344592894  13.951008432400778  38.56919403241177  -2.238694738389777  24.97468852503685  0.000000
0.36  0.000000  0.000000  0.000000  -35.62451709276069  9.403918336018425  -2.7048372365462967  62.36034346120432  22.816020475541876  49.414961502225424  15.181405513296172  38.86577055525744  -0.7568026580381485  25.65752825151286  0.000000
0.4  0.000000  0.000000  0.000000  -28.99153556077363  6.014865902646881  1.3848130993724759  66.69439818344874  17.46917124668367  45.01223206871079  8.978258904572526  47.335189214906286  3.6963803900984074  26.624694224927097  0.000000
0.44  0.000000  0.000000  0.000000  -35.334446156834716  4.3887225155869185  -6.4267973658446875  73.07963244450261  30.22754971976051  49.75377850895055  -0.6004220900078493  45.920075587934456  14.352358350482485  24.97314110520013  0.000000
0.48  0.000000  0.000000  0.000000  -41.46337608558191  0.4104120260854396  -24.263562757597086  64.78417285997891  50.57810038522428  49.4257594000099  1.413785746530231  41.166083985807866  23.595726504806322  30.224763193026927  0.000000
0.52  0.000000  0.000000  0.000000  -38.30496270035357  -16.50925623576536  -4.660085407948614  51.38322108542067  44.166284286719694  42.55018628490274  3.5039096833881294  26.253101672745167  28.788350915843857  34.86732056611321  0.000000
0.56  0.000000  0.000000  0.000000  -35.80402199751668  23.863996619940078  17.834132292361165  46.578148163474104  18.488479786072023  74.00130283702215  -15.843206662785592  26.75409952286906  22.05474482783659  23.83734742969012  0.000000
0.6  0.000000  0.000000  0.000000  -28.879748054497384  71.15088197174923  -11.399541434467835  44.49475389545999  11.136672909618845  106.31662452501122  -6.736167636725787  44.75149467505563  10.552354539117257  19.554682679969847  0.000000
0.64  0.000000  0.000000  0.000000  -6.038661372995885  40.78587858534353  -26.74447012727966  35.59023419198253  24.560344333043613  81.49211667658408  17.519497491265778  50.86566868288217  5.008768369742841  25.666781483175125  0.000000
0.68  0.000000  0.000000  0.000000  8.446658040018898  30.6809689296373  -15.405290170279532  37.202485730959744  18.803975152278802  56.797907017096996  14.977697206109648  58.183243921213695  -2.1599472266963753  26.263099175050677  0.000000
0.72  0.000000  0.000000  0.000000  -8.336227891319941  46.36828092273263  -7.957616640744793  39.56931255939551  9.947674164438103  68.01329322149557  18.872097814463668  47.39849211948647  -1.4559033432615491  25.29068680560283  0.000000
0.76  0.000000  0.000000  0.000000  -24.166024128665136  43.71755137533851  -2.9154944225078174  39.15165685402215  17.093555242019256  79.94680986127095  23.352914755382802  37.04603259329556  -1.0040143747474894  23.76712974394437  0.000000
0.8  0.000000  0.000000  0.000000  -28.546067180122815  47.26820264696167  -1.354086527580245  45.19998487139194  18.08426838816953  86.5857201178687  22.82703389586841  36.76929117250013  -5.227358651429492  20.05098807623075  0.000000
0.84  0.000000  0.000000  0.000000  -31.37952162879362  48.50351118866311  0.5509754429977461  42.623055314961796  18.691860864066875  89.12692781391132  29.20468254285255  32.76601931324891  -10.529840199296125  19.161222593648368  0.000000
0.88  0.000000  0.000000  0.000000  -24.278003818114403  47.59765343784145  -4.264886154802776  41.39323510816366  12.911413857159628  78.7556235681178  38.3276386438648  46.62595920304474  -17.968352799349194  21.206785285482066  0.000000
0.92  0.000000  0.000000  0.000000  -12.272360960330746  50.916568291327806  -6.60717197817424  30.943905445098178  6.3881241549262135  64.97410850555393  44.544407182919976  57.23735784950226  -23.053453764188582  25.33907417389914  0.000000
0.96  0.000000  0.000000  0.000000  -10.540528045444704  46.690488098158355  4.5358442777666035  22.775600179943257  16.239712678086278  62.442422189069646  42.88195076352721  40.364707827448136  -23.58422002312447  22.435939807898052  0.000000
1.0  0.000000  0.000000  0.000000  -11.520525915292557  34.686418073260356  16.461870762598878  30.07193728787471  22.60099288090291  60.73384496253348  37.51992388568896  26.5110614645786  -17.2040496008084  18.566267405735477  0.000000
1.04  0.000000  0.000000  0.000000  -9.541589810930317  30.030773722448103  20.336491894740753  33.06722308573347  18.875769392509557  55.697495649452556  38.48664636305978  23.816182200569866  -14.306380944476073  18.63190504557967  0.000000
1.08  0.000000  0.000000  0.000000  -8.976513715763483  33.81615643176617  19.400172603674303  30.910791886807377  18.61622726944864  54.42979866858987  43.875074015923616  22.672366770299696  -18.999490559625166  18.06454137097416  0.000000
1.12  0.000000  0.000000  0.000000  -9.556212765378575  32.89181680578246  20.399636419760657  30.828724578987607  17.224659534241983  52.89829254711116  49.7923635812078  23.771050324582614  -22.772607996555557  18.082945907939415  0.000000
1.16  0.000000  0.000000  0.000000  -8.536498379217216  29.14942130391188  24.640522458230514  32.94217962942796  17.79842690895517  49.98334095169795  52.12151022759014  23.952973796003402  -26.050583589429777  21.357418708561262  0.000000
1.2  0.000000  0.000000  0.000000  -9.86162697673477  29.29279156796098  27.390265084215596  35.31620811548598  16.032492187896505  52.45869887484076  55.21796365067514  26.04631543235847  -28.40424876205342  23.257324805474706  0.000000
1.24  0.000000  0.000000  0.000000  -6.858748359351509  39.791926690135845  18.8641161675129  27.22021564257705  12.427624336412194  57.63243743804284  58.64758676841564  37.35903139761299  -30.193682964047294  28.789339598733363  0.000000
1.28  0.000000  0.000000  0.000000  -9.46641315293554  50.872983653951074  5.9942465261349325  33.15996043519886  11.665938385207042  57.09720394581083  54.61222573509389  64.14401802754404  -33.83705530019252  31.408794034339913  0.000000
1.32  0.000000  0.000000  0.000000  -12.599052594107333  44.93635602366742  -6.728906341518695  50.05457753535262  -4.30056415048071  87.35858679956148  66.91463695506877  59.693943070128526  -33.90040417512429  17.008693628103927  0.000000
1.36  0.000000  0.000000  0.000000  -11.535723120100792  55.797764371953555  -19.08177470022337  36.967768202294224  -0.010238684886245807  81.65066412624853  61.12518729247052  68.65479823442678  -52.327986645676965  17.966623514113756  0.000000
1.4000000000000001  0.000000  0.000000  0.000000  -37.992367939922126  68.22283666073533  12.684187920639664  30.344562543314062  11.738332670263627  59.2623644938147  10.29034108163155  82.52894329284979  -40.87913209344656  42.61159230996423  0.000000
1.44  0.000000  0.000000  0.000000  -44.54225659059765  28.137675406324156  57.60322707098571  49.590498925173414  -9.317490650962249  43.85748750137976  -9.265182315141193  92.36709472316701  9.866423606499117  45.27671561453337  0.000000
1.48  0.000000  0.000000  0.000000  -22.163582386297275  -6.893403341356067  74.3373044473632  49.867156904970315  -26.72901493950675  1.338673332548653  -4.531396303013142  125.70658690962983  23.579411724539792  27.674429946299643  0.000000
1.52  0.000000  0.000000  0.000000  -28.386793791719438  -6.355436904628084  75.85877849791824  50.48538790220446  -26.817390733469473  7.067895073413333  -2.1542052989736438  111.42919144878668  27.19102631027833  -26.83781748528582  0.000000
1.56  0.000000  0.000000  0.000000  -28.507674593677844  -4.392692499113071  72.6345326351524  55.292224453814676  -27.588554937979943  15.463263097463837  -0.8656140850987133  119.04716478338061  20.52347033472377  -51.26219200064626  0.000000
1.6  0.000000  0.000000  0.000000  -33.09412175471934  -1.1432916676410039  80.04573708239667  41.21864437785165  -26.10195476651521  -0.5721936142183957  -13.997383363234452  121.21658515790861  29.032648153032653  -10.607965163088195  0.000000
1.6400000000000001  0.000000  0.000000  0.000000  -34.87315968394948  3.0412464423827643  68.9577070291972  60.539971118561496  -23.426162212256713  28.789801921408515  8.302828343832616  128.0765011005469  10.696708547049935  0.32391289065894324  0.000000
1.68  0.000000  0.000000  0.000000  -21.527473435949922  -2.4186164157626484  64.05461375484663  60.080980734681695  -17.680016398645936  32.96635568131782  53.80561804761721  135.30906825674435  -30.192727180046738  -54.48517878449466  0.000000
1.72  0.000000  0.000000  0.000000  -38.19016378965118  -5.534081613811894  60.69199132711177  61.432108549233355  -18.39076676282754  21.16742679726934  47.11582640498622  98.81416606085205  -2.8161711654596515  -49.14333478567156  0.000000
1.76  0.000000  0.000000  0.000000  -38.17674666173712  2.7676698065759404  31.40463927341621  78.51157567649079  -8.52361630066971  35.589440695835314  25.462297954464557  75.3913799743785  -16.644539510417147  32.11192226431178  0.000000
1.8  0.000000  0.000000  0.000000  -39.75673387937098  -3.1225875475240907  10.970252067625541  68.64439643006567  20.673144181188704  34.968182906407186  37.422352027002106  50.987849343702635  -42.99740574601303  50.08334020809104  0.000000
1.84  0.000000  0.000000  0.000000  -46.31934169328699  -2.37262673627696  4.796412267667947  71.25327755126301  26.09705915013819  39.777813141821674  38.52100791629578  41.155223759215836  -28.44188414912007  35.89725946946607  0.000000
1.8800000000000001  0.000000  0.000000  0.000000  -34.83626434729476  5.89845021558743  3.863848774583176  68.66226142674509  19.268566872095196  43.824614937823505  23.428900014487173  38.3582282226427  -17.997719134056062  26.39329357182626  0.000000
1.92  0.000000  0.000000  0.000000  -35.12031088547787  4.580122000359137  2.472852046888794  68.84199851633858  20.642043796393843  45.93325828263586  14.361377492827177  29.497770003748414  -11.114899752255615  22.994455636878843  0.000000
